<svg width="20" height="20" viewBox="0 0 20 20" fill="none" xmlns="http://www.w3.org/2000/svg">
<g clip-path="url(#clip0_417_6)">
<path d="M10.0001 1.66663C14.6026 1.66663 18.3334 5.39746 18.3334 9.99996C18.3334 14.6025 14.6026 18.3333 10.0001 18.3333C5.39758 18.3333 1.66675 14.6025 1.66675 9.99996C1.66675 5.39746 5.39758 1.66663 10.0001 1.66663ZM10.0001 3.33329C8.23197 3.33329 6.53628 4.03567 5.28604 5.28591C4.03579 6.53616 3.33341 8.23185 3.33341 9.99996C3.33341 11.7681 4.03579 13.4638 5.28604 14.714C6.53628 15.9642 8.23197 16.6666 10.0001 16.6666C11.7682 16.6666 13.4639 15.9642 14.7141 14.714C15.9644 13.4638 16.6667 11.7681 16.6667 9.99996C16.6667 8.23185 15.9644 6.53616 14.7141 5.28591C13.4639 4.03567 11.7682 3.33329 10.0001 3.33329ZM7.50008 6.66663C8.42091 6.66663 9.25425 7.03996 9.85758 7.64413L8.67925 8.82246C8.44626 8.58924 8.14935 8.43035 7.82606 8.36589C7.50276 8.30142 7.16761 8.33428 6.863 8.4603C6.55838 8.58633 6.29798 8.79986 6.11472 9.07388C5.93147 9.34791 5.83359 9.67013 5.83348 9.99979C5.83336 10.3294 5.93101 10.6517 6.11407 10.9259C6.29713 11.2 6.55738 11.4138 6.86191 11.54C7.16644 11.6662 7.50156 11.6993 7.8249 11.6351C8.14824 11.5709 8.44526 11.4122 8.67841 11.1791L9.85675 12.3566C9.39042 12.8223 8.79657 13.1392 8.1502 13.2676C7.50382 13.3959 6.83391 13.3298 6.22508 13.0776C5.61624 12.8255 5.09579 12.3986 4.72944 11.8508C4.36309 11.303 4.16729 10.6589 4.16675 9.99996C4.16675 8.15996 5.66008 6.66663 7.50008 6.66663ZM13.3334 6.66663C14.2542 6.66663 15.0876 7.03996 15.6909 7.64413L14.5126 8.82246C14.2796 8.58924 13.9827 8.43035 13.6594 8.36589C13.3361 8.30142 13.0009 8.33428 12.6963 8.4603C12.3917 8.58633 12.1313 8.79986 11.9481 9.07388C11.7648 9.34791 11.6669 9.67013 11.6668 9.99979C11.6667 10.3294 11.7643 10.6517 11.9474 10.9259C12.1305 11.2 12.3907 11.4138 12.6952 11.54C12.9998 11.6662 13.3349 11.6993 13.6582 11.6351C13.9816 11.5709 14.2786 11.4122 14.5117 11.1791L15.6901 12.3566C15.2238 12.8223 14.6299 13.1392 13.9835 13.2676C13.3372 13.3959 12.6672 13.3298 12.0584 13.0776C11.4496 12.8255 10.9291 12.3986 10.5628 11.8508C10.1964 11.303 10.0006 10.6589 10.0001 9.99996C10.0001 8.15996 11.4934 6.66663 13.3334 6.66663Z" fill="#D2D2D2"/>
</g>
<defs>
<clipPath id="clip0_417_6">
<rect width="20" height="20" fill="white"/>
</clipPath>
</defs>
</svg>
