<svg width="27" height="26" viewBox="0 0 27 26" fill="none" xmlns="http://www.w3.org/2000/svg">
<path d="M18.9165 19.9659H14.5832L9.76232 23.1725C9.04732 23.6492 8.08317 23.1401 8.08317 22.2734V19.9659C4.83317 19.9659 2.6665 17.7992 2.6665 14.5492V8.04917C2.6665 4.79917 4.83317 2.63251 8.08317 2.63251H18.9165C22.1665 2.63251 24.3332 4.79917 24.3332 8.04917V14.5492C24.3332 17.7992 22.1665 19.9659 18.9165 19.9659Z" stroke="white" stroke-width="2" stroke-miterlimit="10" stroke-linecap="round" stroke-linejoin="round"/>
<path d="M13.5 12.3066V12.0792C13.5 11.3425 13.955 10.9525 14.41 10.6383C14.8542 10.335 15.2983 9.94501 15.2983 9.23001C15.2983 8.23334 14.4966 7.43164 13.5 7.43164C12.5033 7.43164 11.7017 8.23334 11.7017 9.23001" stroke="white" stroke-width="1.5" stroke-linecap="round" stroke-linejoin="round"/>
<path d="M13.4953 14.8958H13.505" stroke="white" stroke-width="1.5" stroke-linecap="round" stroke-linejoin="round"/>
</svg>
